<svg width="204.6134521484375px" height="195.2px" xmlns="http://www.w3.org/2000/svg" viewBox="147.69327392578126 -22.599999999999994 204.6134521484375 195.2" style="background: rgb(63, 94, 99);" preserveAspectRatio="xMidYMid"><defs><filter id="editing-hover" x="-100%" y="-100%" width="300%" height="300%"><feFlood flood-color="#a80000" result="flood"></feFlood><feComposite operator="in" in2="SourceAlpha" in="flood" result="shadow"></feComposite><feOffset dx="-4" dy="-4" in="SourceGraphic" result="offset-1"></feOffset><feOffset dx="4" dy="4" in="shadow" result="offset-2"></feOffset><feMerge><feMergeNode in="offset-2"></feMergeNode><feMergeNode in="offset-1"></feMergeNode></feMerge></filter></defs><g filter="url(#editing-hover)"><g transform="translate(187.4383683204651, 113.96000099182129)"><path d="M50.62 2.22L50.62 2.22L50.62 2.22Q36.41 2.22 35.08-17.98L35.08-17.98L15.98-17.98L15.98-17.98Q13.76-12.88 12.21-8.44L12.21-8.44L9.32 0L-6.22 0L28.75-73.26L52.61-73.26L57.28-19.31L57.28-19.31Q58.39-7.66 62.83-4.22L62.83-4.22L62.83-4.22Q59.61 2.22 50.62 2.22ZM25.53-40.18L19.43-26.09L34.74-26.09L33.41-54.61L33.41-57.61L25.53-40.18ZM78.14-54.06L78.14-54.06L78.14-54.06Q74.37-56.94 74.37-63.10L74.37-63.10L74.37-63.10Q74.37-69.26 78.42-72.48L78.42-72.48L78.42-72.48Q82.47-75.70 89.47-75.70L89.47-75.70L89.47-75.70Q93.91-75.70 104.45-74.15L104.45-74.15L112.00-73.04L112.00-73.04Q115.77-72.59 119.71-72.59L119.71-72.59L119.71-72.59Q123.65-72.59 126.32-74.26L126.32-74.26L126.32-74.26Q130.31-70.71 130.31-65.60L130.31-65.60L130.31-65.60Q130.31-60.49 125.76-56.83L125.76-56.83L125.76-56.83Q121.10-52.95 115.11-52.95L115.11-52.95L115.11-52.95Q112.22-52.95 107.56-53.72L107.56-53.72L107.56-53.72Q102.12-36.63 102.12-24.75L102.12-24.75L102.12-24.75Q102.12-12.88 108.11-6.66L108.11-6.66L108.11-6.66Q105.34-1.67 101.23 0.28L101.23 0.28L101.23 0.28Q97.13 2.22 90.96 2.22L90.96 2.22L90.96 2.22Q84.80 2.22 80.97-1.17L80.97-1.17L80.97-1.17Q77.14-4.55 77.14-11.54L77.14-11.54L77.14-11.54Q77.14-19.65 81.58-32.97L81.58-32.97L81.58-32.97Q86.02-46.18 92.69-56.28L92.69-56.28L92.69-56.28Q89.47-56.61 86.14-56.61L86.14-56.61L86.14-56.61Q79.25-56.61 78.14-54.06Z" fill="#f56237"></path></g></g><style>text {
  font-size: 64px;
  font-family: Arial Black;
  dominant-baseline: central;
  text-anchor: middle;
}</style></svg>