<?xml version="1.0" standalone="no"?><svg xmlns="http://www.w3.org/2000/svg" viewBox="0 0 1440 320"><path fill="#3F5E63" fill-opacity="1" d="M0,0L17.1,16C34.3,32,69,64,103,106.7C137.1,149,171,203,206,192C240,181,274,107,309,74.7C342.9,43,377,53,411,80C445.7,107,480,149,514,138.7C548.6,128,583,64,617,53.3C651.4,43,686,85,720,122.7C754.3,160,789,192,823,176C857.1,160,891,96,926,101.3C960,107,994,181,1029,202.7C1062.9,224,1097,192,1131,176C1165.7,160,1200,160,1234,138.7C1268.6,117,1303,75,1337,69.3C1371.4,64,1406,96,1423,112L1440,128L1440,0L1422.9,0C1405.7,0,1371,0,1337,0C1302.9,0,1269,0,1234,0C1200,0,1166,0,1131,0C1097.1,0,1063,0,1029,0C994.3,0,960,0,926,0C891.4,0,857,0,823,0C788.6,0,754,0,720,0C685.7,0,651,0,617,0C582.9,0,549,0,514,0C480,0,446,0,411,0C377.1,0,343,0,309,0C274.3,0,240,0,206,0C171.4,0,137,0,103,0C68.6,0,34,0,17,0L0,0Z"></path></svg>