<?xml version="1.0" standalone="no"?><svg xmlns="http://www.w3.org/2000/svg" viewBox="0 0 1440 320"><path fill="#A80000" fill-opacity="1" d="M0,288L26.7,272C53.3,256,107,224,160,224C213.3,224,267,256,320,266.7C373.3,277,427,267,480,240C533.3,213,587,171,640,128C693.3,85,747,43,800,32C853.3,21,907,43,960,53.3C1013.3,64,1067,64,1120,58.7C1173.3,53,1227,43,1280,32C1333.3,21,1387,11,1413,5.3L1440,0L1440,320L1413.3,320C1386.7,320,1333,320,1280,320C1226.7,320,1173,320,1120,320C1066.7,320,1013,320,960,320C906.7,320,853,320,800,320C746.7,320,693,320,640,320C586.7,320,533,320,480,320C426.7,320,373,320,320,320C266.7,320,213,320,160,320C106.7,320,53,320,27,320L0,320Z"></path></svg>